<svg width="428" height="926" viewBox="0 0 428 926" fill="none" xmlns="http://www.w3.org/2000/svg">
<g clip-path="url(#clip0_36_225)">
<rect width="428" height="926" fill="#161616"/>
<path d="M377.37 707.138C377.37 707.138 377.087 707.62 376.52 708.583C375.953 709.546 375.33 710.821 374.65 712.408C373.913 713.995 373.262 715.723 372.695 717.593C372.128 719.463 371.845 721.305 371.845 723.118C371.845 724.535 372.072 725.696 372.525 726.603C372.978 727.51 373.743 727.963 374.82 727.963C375.84 727.963 376.662 727.51 377.285 726.603C377.908 725.696 378.475 724.421 378.985 722.778C379.495 721.078 380.118 719.066 380.855 716.743C381.988 713.003 383.292 709.773 384.765 707.053C386.238 704.333 388.137 702.236 390.46 700.763C392.727 699.29 395.758 698.553 399.555 698.553C403.182 698.553 406.242 699.205 408.735 700.508C411.172 701.811 413.127 703.568 414.6 705.778C416.073 707.988 417.15 710.453 417.83 713.173C418.453 715.893 418.765 718.67 418.765 721.503C418.765 724.393 418.482 727.425 417.915 730.598C417.292 733.715 416.47 736.746 415.45 739.693C414.373 742.64 413.127 745.331 411.71 747.768L397.175 740.628C397.175 740.628 397.515 740.061 398.195 738.928C398.875 737.795 399.64 736.293 400.49 734.423C401.34 732.553 402.105 730.485 402.785 728.218C403.465 725.895 403.805 723.571 403.805 721.248C403.805 719.435 403.578 718.188 403.125 717.508C402.615 716.771 401.963 716.403 401.17 716.403C399.98 716.403 399.073 717.026 398.45 718.273C397.77 719.52 397.147 721.163 396.58 723.203C395.957 725.186 395.248 727.396 394.455 729.833C393.265 733.346 391.933 736.236 390.46 738.503C388.93 740.77 387.145 742.441 385.105 743.518C383.008 744.595 380.487 745.133 377.54 745.133C373.063 745.133 369.323 744.085 366.32 741.988C363.317 739.891 361.05 737.143 359.52 733.743C357.933 730.286 357.14 726.575 357.14 722.608C357.14 719.661 357.508 716.828 358.245 714.108C358.925 711.331 359.775 708.753 360.795 706.373C361.815 703.936 362.778 701.811 363.685 699.998L377.37 707.138ZM418.51 664.877C418.51 669.694 417.717 673.83 416.13 677.287C414.543 680.744 412.362 683.577 409.585 685.787C406.808 687.94 403.635 689.527 400.065 690.547C396.438 691.567 392.642 692.077 388.675 692.077H357.65V675.502H388.675C390.658 675.502 392.557 675.304 394.37 674.907C396.183 674.51 397.798 673.887 399.215 673.037C400.632 672.187 401.765 671.11 402.615 669.807C403.408 668.447 403.805 666.804 403.805 664.877C403.805 662.894 403.408 661.222 402.615 659.862C401.765 658.502 400.632 657.425 399.215 656.632C397.742 655.782 396.098 655.159 394.285 654.762C392.472 654.365 390.602 654.167 388.675 654.167H357.65V637.592H388.675C392.868 637.592 396.778 638.159 400.405 639.292C404.032 640.369 407.205 642.012 409.925 644.222C412.645 646.432 414.77 649.265 416.3 652.722C417.773 656.122 418.51 660.174 418.51 664.877ZM418 628.058H357.65V602.048C357.65 599.101 358.245 596.381 359.435 593.888C360.625 591.395 362.24 589.241 364.28 587.428C366.263 585.615 368.502 584.226 370.995 583.263C373.488 582.243 376.01 581.733 378.56 581.733C382.13 581.733 385.502 582.583 388.675 584.283C391.848 585.926 394.455 588.25 396.495 591.253C398.478 594.2 399.47 597.656 399.47 601.623V611.483H418V628.058ZM385.02 611.483V602.728C385.02 602.048 384.822 601.396 384.425 600.773C384.028 600.15 383.348 599.64 382.385 599.243C381.422 598.79 380.147 598.563 378.56 598.563C376.86 598.563 375.557 598.818 374.65 599.328C373.687 599.781 373.035 600.376 372.695 601.113C372.298 601.793 372.1 602.473 372.1 603.153V611.483H385.02ZM418 575.099H357.65V549.089C357.65 546.143 358.245 543.423 359.435 540.929C360.625 538.436 362.24 536.283 364.28 534.469C366.263 532.656 368.502 531.268 370.995 530.304C373.488 529.284 376.01 528.774 378.56 528.774C382.13 528.774 385.502 529.624 388.675 531.324C391.848 532.968 394.455 535.291 396.495 538.294C398.478 541.241 399.47 544.698 399.47 548.664V558.524H418V575.099ZM385.02 558.524V549.769C385.02 549.089 384.822 548.438 384.425 547.814C384.028 547.191 383.348 546.681 382.385 546.284C381.422 545.831 380.147 545.604 378.56 545.604C376.86 545.604 375.557 545.859 374.65 546.369C373.687 546.823 373.035 547.418 372.695 548.154C372.298 548.834 372.1 549.514 372.1 550.194V558.524H385.02ZM418 522.14H357.65V505.565H403.55V478.195H418V522.14ZM357.65 468.313L382.3 457.518L357.65 446.468V428.448L398.025 449.273H418V465.763H397.855L357.65 486.248V468.313Z" fill="#0C0C0C"/>
<path d="M402.53 345.262C406.157 345.262 409.103 346.253 411.37 348.237C413.637 350.163 415.308 352.77 416.385 356.057C417.462 359.343 418 362.97 418 366.937V396.602H357.65V361.582C357.65 358.748 358.415 356.312 359.945 354.272C361.418 352.175 363.345 350.588 365.725 349.512C368.105 348.378 370.57 347.812 373.12 347.812C375.897 347.812 378.588 348.548 381.195 350.022C383.802 351.438 385.757 353.592 387.06 356.482C388.08 353.025 389.865 350.305 392.415 348.322C394.965 346.282 398.337 345.262 402.53 345.262ZM399.13 362.092C398.11 362.092 397.232 362.29 396.495 362.687C395.702 363.027 395.078 363.508 394.625 364.132C394.172 364.755 393.945 365.492 393.945 366.342V380.027H404.06V366.937C404.06 366.03 403.862 365.208 403.465 364.472C403.068 363.735 402.502 363.168 401.765 362.772C401.028 362.318 400.15 362.092 399.13 362.092ZM371.76 380.027H381.025V368.722C381.025 367.985 380.912 367.277 380.685 366.597C380.402 365.917 379.92 365.35 379.24 364.897C378.56 364.443 377.597 364.217 376.35 364.217C375.217 364.217 374.338 364.415 373.715 364.812C373.035 365.152 372.553 365.633 372.27 366.257C371.93 366.823 371.76 367.475 371.76 368.212V380.027ZM418 337.915H357.65V321.34H403.55V293.97H418V337.915ZM418.51 261.74C418.51 266.33 417.66 270.495 415.96 274.235C414.203 277.975 411.88 281.205 408.99 283.925C406.043 286.589 402.757 288.657 399.13 290.13C395.447 291.547 391.65 292.255 387.74 292.255C383.717 292.255 379.892 291.49 376.265 289.96C372.638 288.43 369.408 286.305 366.575 283.585C363.685 280.809 361.418 277.55 359.775 273.81C358.132 270.014 357.31 265.877 357.31 261.4C357.31 256.81 358.188 252.645 359.945 248.905C361.645 245.165 363.968 241.964 366.915 239.3C369.862 236.637 373.177 234.597 376.86 233.18C380.487 231.707 384.227 230.97 388.08 230.97C392.047 230.97 395.843 231.735 399.47 233.265C403.097 234.739 406.355 236.864 409.245 239.64C412.078 242.36 414.345 245.59 416.045 249.33C417.688 253.07 418.51 257.207 418.51 261.74ZM387.91 275.425C389.95 275.425 391.933 275.142 393.86 274.575C395.73 274.009 397.43 273.159 398.96 272.025C400.433 270.892 401.623 269.475 402.53 267.775C403.38 266.019 403.805 263.95 403.805 261.57C403.805 259.19 403.352 257.122 402.445 255.365C401.538 253.609 400.32 252.192 398.79 251.115C397.203 249.982 395.475 249.16 393.605 248.65C391.678 248.084 389.723 247.8 387.74 247.8C385.7 247.8 383.745 248.084 381.875 248.65C380.005 249.217 378.333 250.067 376.86 251.2C375.33 252.334 374.14 253.779 373.29 255.535C372.44 257.292 372.015 259.332 372.015 261.655C372.015 264.035 372.468 266.104 373.375 267.86C374.282 269.56 375.5 270.977 377.03 272.11C378.503 273.244 380.203 274.094 382.13 274.66C384 275.17 385.927 275.425 387.91 275.425ZM387.315 227.26C383.632 227.26 380.033 226.58 376.52 225.22C372.95 223.804 369.72 221.764 366.83 219.1C363.94 216.437 361.645 213.207 359.945 209.41C358.188 205.557 357.31 201.222 357.31 196.405C357.31 190.625 358.528 185.582 360.965 181.275C363.345 176.969 366.518 173.767 370.485 171.67L379.495 184.335C377.512 185.072 375.982 186.149 374.905 187.565C373.828 188.925 373.092 190.427 372.695 192.07C372.242 193.657 372.015 195.215 372.015 196.745C372.015 199.125 372.497 201.194 373.46 202.95C374.367 204.65 375.585 206.067 377.115 207.2C378.645 208.277 380.345 209.099 382.215 209.665C384.085 210.175 385.955 210.43 387.825 210.43C389.922 210.43 391.933 210.119 393.86 209.495C395.787 208.872 397.515 207.965 399.045 206.775C400.518 205.585 401.68 204.14 402.53 202.44C403.38 200.684 403.805 198.729 403.805 196.575C403.805 195.045 403.578 193.487 403.125 191.9C402.615 190.314 401.822 188.869 400.745 187.565C399.668 186.262 398.223 185.27 396.41 184.59L404.485 171.075C407.432 172.265 409.953 174.249 412.05 177.025C414.147 179.802 415.762 182.947 416.895 186.46C417.972 189.974 418.51 193.459 418.51 196.915C418.51 201.392 417.632 205.5 415.875 209.24C414.062 212.924 411.682 216.125 408.735 218.845C405.732 221.509 402.388 223.577 398.705 225.05C394.965 226.524 391.168 227.26 387.315 227.26ZM418 165.176H357.65V148.601H380.6L357.65 130.241V111.541L384.68 133.471L418 110.011V129.051L395.815 144.011L400.575 148.601H418V165.176ZM377.37 69.9393C377.37 69.9393 377.087 70.421 376.52 71.3843C375.953 72.3476 375.33 73.6226 374.65 75.2093C373.913 76.796 373.262 78.5243 372.695 80.3943C372.128 82.2643 371.845 84.106 371.845 85.9193C371.845 87.336 372.072 88.4976 372.525 89.4043C372.978 90.311 373.743 90.7643 374.82 90.7643C375.84 90.7643 376.662 90.311 377.285 89.4043C377.908 88.4976 378.475 87.2226 378.985 85.5793C379.495 83.8793 380.118 81.8676 380.855 79.5443C381.988 75.8043 383.292 72.5743 384.765 69.8543C386.238 67.1343 388.137 65.0376 390.46 63.5643C392.727 62.091 395.758 61.3543 399.555 61.3543C403.182 61.3543 406.242 62.006 408.735 63.3093C411.172 64.6126 413.127 66.3693 414.6 68.5793C416.073 70.7893 417.15 73.2543 417.83 75.9743C418.453 78.6943 418.765 81.471 418.765 84.3043C418.765 87.1943 418.482 90.226 417.915 93.3993C417.292 96.516 416.47 99.5476 415.45 102.494C414.373 105.441 413.127 108.133 411.71 110.569L397.175 103.429C397.175 103.429 397.515 102.863 398.195 101.729C398.875 100.596 399.64 99.0943 400.49 97.2243C401.34 95.3543 402.105 93.286 402.785 91.0193C403.465 88.696 403.805 86.3726 403.805 84.0493C403.805 82.236 403.578 80.9893 403.125 80.3093C402.615 79.5726 401.963 79.2043 401.17 79.2043C399.98 79.2043 399.073 79.8276 398.45 81.0743C397.77 82.321 397.147 83.9643 396.58 86.0043C395.957 87.9876 395.248 90.1976 394.455 92.6343C393.265 96.1476 391.933 99.0376 390.46 101.304C388.93 103.571 387.145 105.243 385.105 106.319C383.008 107.396 380.487 107.934 377.54 107.934C373.063 107.934 369.323 106.886 366.32 104.789C363.317 102.693 361.05 99.9443 359.52 96.5443C357.933 93.0876 357.14 89.376 357.14 85.4093C357.14 82.4626 357.508 79.6293 358.245 76.9093C358.925 74.1326 359.775 71.5543 360.795 69.1743C361.815 66.7376 362.778 64.6126 363.685 62.7993L377.37 69.9393Z" fill="#0C0C0C"/>
</g>
<defs>
<clipPath id="clip0_36_225">
<rect width="428" height="926" fill="white"/>
</clipPath>
</defs>
</svg>
