<svg width="428" height="926" viewBox="0 0 428 926" fill="none" xmlns="http://www.w3.org/2000/svg">
<g clip-path="url(#clip0_36_225)">
<rect width="428" height="926" fill="#161616"/>
<path d="M377.37 671.138C377.37 671.138 377.087 671.62 376.52 672.583C375.953 673.546 375.33 674.821 374.65 676.408C373.913 677.995 373.262 679.723 372.695 681.593C372.128 683.463 371.845 685.305 371.845 687.118C371.845 688.535 372.072 689.696 372.525 690.603C372.978 691.51 373.743 691.963 374.82 691.963C375.84 691.963 376.662 691.51 377.285 690.603C377.908 689.696 378.475 688.421 378.985 686.778C379.495 685.078 380.118 683.066 380.855 680.743C381.988 677.003 383.292 673.773 384.765 671.053C386.238 668.333 388.137 666.236 390.46 664.763C392.727 663.29 395.758 662.553 399.555 662.553C403.182 662.553 406.242 663.205 408.735 664.508C411.172 665.811 413.127 667.568 414.6 669.778C416.073 671.988 417.15 674.453 417.83 677.173C418.453 679.893 418.765 682.67 418.765 685.503C418.765 688.393 418.482 691.425 417.915 694.598C417.292 697.715 416.47 700.746 415.45 703.693C414.373 706.64 413.127 709.331 411.71 711.768L397.175 704.628C397.175 704.628 397.515 704.061 398.195 702.928C398.875 701.795 399.64 700.293 400.49 698.423C401.34 696.553 402.105 694.485 402.785 692.218C403.465 689.895 403.805 687.571 403.805 685.248C403.805 683.435 403.578 682.188 403.125 681.508C402.615 680.771 401.963 680.403 401.17 680.403C399.98 680.403 399.073 681.026 398.45 682.273C397.77 683.52 397.147 685.163 396.58 687.203C395.957 689.186 395.248 691.396 394.455 693.833C393.265 697.346 391.933 700.236 390.46 702.503C388.93 704.77 387.145 706.441 385.105 707.518C383.008 708.595 380.487 709.133 377.54 709.133C373.063 709.133 369.323 708.085 366.32 705.988C363.317 703.891 361.05 701.143 359.52 697.743C357.933 694.286 357.14 690.575 357.14 686.608C357.14 683.661 357.508 680.828 358.245 678.108C358.925 675.331 359.775 672.753 360.795 670.373C361.815 667.936 362.778 665.811 363.685 663.998L377.37 671.138ZM418.51 628.877C418.51 633.694 417.717 637.83 416.13 641.287C414.543 644.744 412.362 647.577 409.585 649.787C406.808 651.94 403.635 653.527 400.065 654.547C396.438 655.567 392.642 656.077 388.675 656.077H357.65V639.502H388.675C390.658 639.502 392.557 639.304 394.37 638.907C396.183 638.51 397.798 637.887 399.215 637.037C400.632 636.187 401.765 635.11 402.615 633.807C403.408 632.447 403.805 630.804 403.805 628.877C403.805 626.894 403.408 625.222 402.615 623.862C401.765 622.502 400.632 621.425 399.215 620.632C397.742 619.782 396.098 619.159 394.285 618.762C392.472 618.365 390.602 618.167 388.675 618.167H357.65V601.592H388.675C392.868 601.592 396.778 602.159 400.405 603.292C404.032 604.369 407.205 606.012 409.925 608.222C412.645 610.432 414.77 613.265 416.3 616.722C417.773 620.122 418.51 624.174 418.51 628.877ZM418 592.058H357.65V566.048C357.65 563.101 358.245 560.381 359.435 557.888C360.625 555.395 362.24 553.241 364.28 551.428C366.263 549.615 368.502 548.226 370.995 547.263C373.488 546.243 376.01 545.733 378.56 545.733C382.13 545.733 385.502 546.583 388.675 548.283C391.848 549.926 394.455 552.25 396.495 555.253C398.478 558.2 399.47 561.656 399.47 565.623V575.483H418V592.058ZM385.02 575.483V566.728C385.02 566.048 384.822 565.396 384.425 564.773C384.028 564.15 383.348 563.64 382.385 563.243C381.422 562.79 380.147 562.563 378.56 562.563C376.86 562.563 375.557 562.818 374.65 563.328C373.687 563.781 373.035 564.376 372.695 565.113C372.298 565.793 372.1 566.473 372.1 567.153V575.483H385.02ZM418 539.099H357.65V513.089C357.65 510.143 358.245 507.423 359.435 504.929C360.625 502.436 362.24 500.283 364.28 498.469C366.263 496.656 368.502 495.268 370.995 494.304C373.488 493.284 376.01 492.774 378.56 492.774C382.13 492.774 385.502 493.624 388.675 495.324C391.848 496.968 394.455 499.291 396.495 502.294C398.478 505.241 399.47 508.698 399.47 512.664V522.524H418V539.099ZM385.02 522.524V513.769C385.02 513.089 384.822 512.438 384.425 511.814C384.028 511.191 383.348 510.681 382.385 510.284C381.422 509.831 380.147 509.604 378.56 509.604C376.86 509.604 375.557 509.859 374.65 510.369C373.687 510.823 373.035 511.418 372.695 512.154C372.298 512.834 372.1 513.514 372.1 514.194V522.524H385.02ZM418 486.14H357.65V469.565H403.55V442.195H418V486.14ZM357.65 432.313L382.3 421.518L357.65 410.468V392.448L398.025 413.273H418V429.763H397.855L357.65 450.248V432.313Z" fill="#0C0C0C"/>
<path d="M402.53 309.262C406.157 309.262 409.103 310.253 411.37 312.237C413.637 314.163 415.308 316.77 416.385 320.057C417.462 323.343 418 326.97 418 330.937V360.602H357.65V325.582C357.65 322.748 358.415 320.312 359.945 318.272C361.418 316.175 363.345 314.588 365.725 313.512C368.105 312.378 370.57 311.812 373.12 311.812C375.897 311.812 378.588 312.548 381.195 314.022C383.802 315.438 385.757 317.592 387.06 320.482C388.08 317.025 389.865 314.305 392.415 312.322C394.965 310.282 398.337 309.262 402.53 309.262ZM399.13 326.092C398.11 326.092 397.232 326.29 396.495 326.687C395.702 327.027 395.078 327.508 394.625 328.132C394.172 328.755 393.945 329.492 393.945 330.342V344.027H404.06V330.937C404.06 330.03 403.862 329.208 403.465 328.472C403.068 327.735 402.502 327.168 401.765 326.772C401.028 326.318 400.15 326.092 399.13 326.092ZM371.76 344.027H381.025V332.722C381.025 331.985 380.912 331.277 380.685 330.597C380.402 329.917 379.92 329.35 379.24 328.897C378.56 328.443 377.597 328.217 376.35 328.217C375.217 328.217 374.338 328.415 373.715 328.812C373.035 329.152 372.553 329.633 372.27 330.257C371.93 330.823 371.76 331.475 371.76 332.212V344.027ZM418 301.915H357.65V285.34H403.55V257.97H418V301.915ZM418.51 225.74C418.51 230.33 417.66 234.495 415.96 238.235C414.203 241.975 411.88 245.205 408.99 247.925C406.043 250.589 402.757 252.657 399.13 254.13C395.447 255.547 391.65 256.255 387.74 256.255C383.717 256.255 379.892 255.49 376.265 253.96C372.638 252.43 369.408 250.305 366.575 247.585C363.685 244.809 361.418 241.55 359.775 237.81C358.132 234.014 357.31 229.877 357.31 225.4C357.31 220.81 358.188 216.645 359.945 212.905C361.645 209.165 363.968 205.964 366.915 203.3C369.862 200.637 373.177 198.597 376.86 197.18C380.487 195.707 384.227 194.97 388.08 194.97C392.047 194.97 395.843 195.735 399.47 197.265C403.097 198.739 406.355 200.864 409.245 203.64C412.078 206.36 414.345 209.59 416.045 213.33C417.688 217.07 418.51 221.207 418.51 225.74ZM387.91 239.425C389.95 239.425 391.933 239.142 393.86 238.575C395.73 238.009 397.43 237.159 398.96 236.025C400.433 234.892 401.623 233.475 402.53 231.775C403.38 230.019 403.805 227.95 403.805 225.57C403.805 223.19 403.352 221.122 402.445 219.365C401.538 217.609 400.32 216.192 398.79 215.115C397.203 213.982 395.475 213.16 393.605 212.65C391.678 212.084 389.723 211.8 387.74 211.8C385.7 211.8 383.745 212.084 381.875 212.65C380.005 213.217 378.333 214.067 376.86 215.2C375.33 216.334 374.14 217.779 373.29 219.535C372.44 221.292 372.015 223.332 372.015 225.655C372.015 228.035 372.468 230.104 373.375 231.86C374.282 233.56 375.5 234.977 377.03 236.11C378.503 237.244 380.203 238.094 382.13 238.66C384 239.17 385.927 239.425 387.91 239.425ZM387.315 191.26C383.632 191.26 380.033 190.58 376.52 189.22C372.95 187.804 369.72 185.764 366.83 183.1C363.94 180.437 361.645 177.207 359.945 173.41C358.188 169.557 357.31 165.222 357.31 160.405C357.31 154.625 358.528 149.582 360.965 145.275C363.345 140.969 366.518 137.767 370.485 135.67L379.495 148.335C377.512 149.072 375.982 150.149 374.905 151.565C373.828 152.925 373.092 154.427 372.695 156.07C372.242 157.657 372.015 159.215 372.015 160.745C372.015 163.125 372.497 165.194 373.46 166.95C374.367 168.65 375.585 170.067 377.115 171.2C378.645 172.277 380.345 173.099 382.215 173.665C384.085 174.175 385.955 174.43 387.825 174.43C389.922 174.43 391.933 174.119 393.86 173.495C395.787 172.872 397.515 171.965 399.045 170.775C400.518 169.585 401.68 168.14 402.53 166.44C403.38 164.684 403.805 162.729 403.805 160.575C403.805 159.045 403.578 157.487 403.125 155.9C402.615 154.314 401.822 152.869 400.745 151.565C399.668 150.262 398.223 149.27 396.41 148.59L404.485 135.075C407.432 136.265 409.953 138.249 412.05 141.025C414.147 143.802 415.762 146.947 416.895 150.46C417.972 153.974 418.51 157.459 418.51 160.915C418.51 165.392 417.632 169.5 415.875 173.24C414.062 176.924 411.682 180.125 408.735 182.845C405.732 185.509 402.388 187.577 398.705 189.05C394.965 190.524 391.168 191.26 387.315 191.26ZM418 129.176H357.65V112.601H380.6L357.65 94.2408V75.5408L384.68 97.4708L418 74.0108V93.0508L395.815 108.011L400.575 112.601H418V129.176ZM377.37 33.9393C377.37 33.9393 377.087 34.421 376.52 35.3843C375.953 36.3476 375.33 37.6226 374.65 39.2093C373.913 40.796 373.262 42.5243 372.695 44.3943C372.128 46.2643 371.845 48.106 371.845 49.9193C371.845 51.336 372.072 52.4976 372.525 53.4043C372.978 54.311 373.743 54.7643 374.82 54.7643C375.84 54.7643 376.662 54.311 377.285 53.4043C377.908 52.4976 378.475 51.2226 378.985 49.5793C379.495 47.8793 380.118 45.8676 380.855 43.5443C381.988 39.8043 383.292 36.5743 384.765 33.8543C386.238 31.1343 388.137 29.0376 390.46 27.5643C392.727 26.091 395.758 25.3543 399.555 25.3543C403.182 25.3543 406.242 26.006 408.735 27.3093C411.172 28.6126 413.127 30.3693 414.6 32.5793C416.073 34.7893 417.15 37.2543 417.83 39.9743C418.453 42.6943 418.765 45.471 418.765 48.3043C418.765 51.1943 418.482 54.226 417.915 57.3993C417.292 60.516 416.47 63.5476 415.45 66.4943C414.373 69.441 413.127 72.1326 411.71 74.5693L397.175 67.4293C397.175 67.4293 397.515 66.8626 398.195 65.7293C398.875 64.596 399.64 63.0943 400.49 61.2243C401.34 59.3543 402.105 57.286 402.785 55.0193C403.465 52.696 403.805 50.3726 403.805 48.0493C403.805 46.236 403.578 44.9893 403.125 44.3093C402.615 43.5726 401.963 43.2043 401.17 43.2043C399.98 43.2043 399.073 43.8276 398.45 45.0743C397.77 46.321 397.147 47.9643 396.58 50.0043C395.957 51.9876 395.248 54.1976 394.455 56.6343C393.265 60.1476 391.933 63.0376 390.46 65.3043C388.93 67.571 387.145 69.2426 385.105 70.3193C383.008 71.396 380.487 71.9343 377.54 71.9343C373.063 71.9343 369.323 70.886 366.32 68.7893C363.317 66.6926 361.05 63.9443 359.52 60.5443C357.933 57.0876 357.14 53.376 357.14 49.4093C357.14 46.4626 357.508 43.6293 358.245 40.9093C358.925 38.1326 359.775 35.5543 360.795 33.1743C361.815 30.7376 362.778 28.6126 363.685 26.7993L377.37 33.9393Z" fill="#0C0C0C"/>
</g>
<defs>
<clipPath id="clip0_36_225">
<rect width="428" height="926" fill="white"/>
</clipPath>
</defs>
</svg>
